# AST/ASF file generated using VICON BodyLanguage
# -----------------------------------------------
:version 1.10
:name VICON
:units
  mass 1.0
  length 0.45
  angle deg
:documentation
   .ast/.asf automatically generated from VICON data using
   VICON BodyBuilder and BodyLanguage model FoxedUp or BRILLIANT.MOD
:root
   order TX TY TZ RX RY RZ
   axis XYZ
   position 0 0 0  
   orientation 0 0 0 
:bonedata
  begin
     id 1 
     name lhipjoint
     direction 0.541323 -0.757556 0.364798 
     length 2.47576 
     axis 0 0 0  XYZ
  end
  begin
     id 2 
     name lfemur
     direction 0.34202 -0.939693 0  
     length 7.46493  
     axis 0 0 20  XYZ
    dof rx ry rz
    limits (-160.0 20.0)
           (-70.0 70.0)
           (-60.0 70.0)
  end
  begin
     id 3 
     name ltibia
     direction 0.34202 -0.939693 0   
     length 7.73805   
     axis 0 0 20   XYZ
    dof rx
    limits (-10.0 170.0)
  end
  begin
     id 4 
     name lfoot
     direction 0.107174 -0.294458 0.949636   
     length 2.25864   
     axis -90 7.62852e-016 20   XYZ
    dof rx rz
    limits (-45.0 90.0)
           (-70.0 20.0)
  end
  begin
     id 5 
     name ltoes
     direction 1.53606e-011 -4.21934e-011 1   
     length 1.12451   
     axis -90 7.62852e-016 20   XYZ
    dof rx
    limits (-90.0 20.0)
  end
  begin
     id 6 
     name rhipjoint
     direction -0.524745 -0.766967 0.36933   
     length 2.44538  
     axis 0 0 0  XYZ 
  end
  begin
     id 7 
     name rfemur
     direction -0.34202 -0.939693 0   
     length 7.61604   
     axis 0 0 -20   XYZ
    dof rx ry rz
    limits (-160.0 20.0)
           (-70.0 70.0)
           (-70.0 60.0)
  end
  begin
     id 8 
     name rtibia
     direction -0.34202 -0.939693 0   
     length 7.61056   
     axis 0 0 -20   XYZ
    dof rx
    limits (-10.0 170.0)
 end
 begin
     id 9 
     name rfoot
     direction -0.12616 -0.346623 0.929482   
     length 2.46372  
     axis -90 -7.62852e-016 -20   XYZ
    dof rx rz
    limits (-45.0 90.0)
           (-20.0 70.0)
  end
  begin
     id 10 
     name rtoes
     direction -1.53531e-011 -4.22004e-011 1   
     length 1.21611   
     axis -90 -7.62852e-016 -20   XYZ
    dof rx
    limits (-90.0 20.0)
  end
  begin
     id 11 
     name lowerback
     direction -0.000778023 0.997293 -0.0735223   
     length 2.06139   
     axis 0 0 0   XYZ
    dof rx ry rz
    limits (-20.0 45.0)
           (-30.0 30.0)
           (-30.0 30.0)
  end
  begin
     id 12 
     name upperback
     direction 0.0222598 0.999722 -0.0078355   
     length 2.06383   
     axis 0 0 0   XYZ
    dof rx ry rz
    limits (-20.0 45.0)
           (-30.0 30.0)
           (-30.0 30.0)
  end
  begin
     id 13 
     name thorax
     direction 0.0219654 0.999405 0.0265994   
     length 2.07163   
     axis 0 0 0   XYZ
    dof rx ry rz
    limits (-20.0 45.0)
           (-30.0 30.0)
           (-30.0 30.0)
  end
  begin
     id 14 
     name lowerneck
     direction 0.0213282 0.988147 0.15202   
     length 1.75969   
     axis 0 0 0   XYZ
    dof rx ry rz
    limits (-20.0 45.0)
           (-30.0 30.0)
           (-30.0 30.0)
  end
  begin
     id 15 
     name upperneck
     direction -0.0546456 0.982624 -0.177379   
     length 1.79244   
     axis 0 0 0   XYZ
    dof rx ry rz
    limits (-20.0 45.0)
           (-30.0 30.0)
           (-30.0 30.0)
  end
  begin
     id 16
     name head
     direction -0.0199987 0.996855 -0.076686  
     length 1.80555  
     axis 0 0 0   XYZ
    dof rx ry rz
    limits (-20.0 45.0)
           (-30.0 30.0)
           (-30.0 30.0)
  end
  begin
     id 17 
     name lclavicle
     direction 0.929565 0.363219 -0.063096  
     length 3.55722  
     axis 0 0 0   XYZ
    dof ry rz
    limits (-20.0 10.0)
           (0.0 20.0)
  end
  begin
     id 18 
     name lhumerus
     direction 1 -4.48993e-011 -2.36203e-027   
     length 4.92785   
     axis 180 -30 -90   XYZ
    dof rx ry rz
    limits (-60.0 90.0)
           (-90.0 90.0)
           (-90.0 90.0)
  end
  begin
     id 19
     name lradius
     direction 1 -4.48947e-011 2.02997e-027   
     length 3.44052   
     axis 180 -30 -90   XYZ
    dof rx
    limits (-10.0 170.0)
  end
  begin
     id 20
     name lwrist
     direction 1 -4.48962e-011 1.45991e-027   
     length 1.72026   
     axis 1.49639e-024 90 90   XYZ
    dof ry
    limits (-180.0 0.0)
 end
  begin
     id 21 
     name lhand
     direction 1 -4.48984e-011 2.91906e-027   
     length 0.654326   
     axis -1.863e-015 90 90   XYZ
    dof rx rz
    limits (-90.0 90.0)
           (-45.0 45.0)
  end
  begin
     id 22 
     name lfingers
     direction 1 -4.48961e-011 5.83968e-027   
     length 0.527534   
     axis -3.72598e-015 90 90   XYZ
    dof rx
    limits (0.0 90.0)
  end
  begin
     id 23
     name lthumb
     direction 0.707107 -6.34963e-011 0.707107   
     length 0.757437   
     axis -90 45 -6.68868e-015   XYZ
    dof rx rz
    limits (-45.0 45.0)
           (-45.0 45.0)
  end
  begin
     id 24 
     name rclavicle
     direction -0.902944 0.422599 -0.0781198   
     length 3.54432  
     axis 0 0 0   XYZ 
    dof ry rz
    limits (-10.0 20.0)
           (-20.0 0.0)
  end
  begin
     id 25 
     name rhumerus
     direction -1 -4.48953e-011 -4.75835e-028  
     length 5.09181   
     axis 180 30 90   XYZ
    dof rx ry rz
    limits (-90.0 60.0)
           (-90.0 90.0)
           (-90.0 90.0)
  end
  begin
     id 26 
     name rradius
     direction -1 -4.48986e-011 -3.25889e-027   
     length 3.49865   
     axis 180 30 90   XYZ
    dof rx
    limits (-10.0 170.0)
  end
  begin
     id 27 
     name rwrist
     direction -1 -4.48963e-011 1.45989e-027   
     length 1.74933   
     axis 1.49639e-024 -90 -90   XYZ
    dof ry
    limits (-180.0 0.0)
  end
  begin
     id 28
     name rhand
     direction -1 -4.49003e-011 2.91844e-027   
     length 0.66641   
     axis -1.863e-015 -90 -90   XYZ
    dof rx rz
    limits (-90.0 90.0)
           (-45.0 45.0)
  end
  begin
     id 29
     name rfingers
     direction -1 -4.48973e-011 5.83886e-027   
     length 0.537277   
     axis -3.72598e-015 -90 -90   XYZ
    dof rx
    limits (0.0 90.0)
  end
  begin
     id 30
     name rthumb
     direction -0.707107 -6.34976e-011 0.707107   
     length 0.771425   
     axis -90 -45 6.68868e-015   XYZ
    dof rx rz
    limits (-45.0 45.0)
           (-45.0 45.0)
  end
:hierarchy
  begin
    root lhipjoint rhipjoint lowerback
    lhipjoint lfemur
    lfemur ltibia
    ltibia lfoot
    lfoot ltoes
    rhipjoint rfemur
    rfemur rtibia
    rtibia rfoot
    rfoot rtoes
    lowerback upperback
    upperback thorax
    thorax lowerneck lclavicle rclavicle
    lowerneck upperneck
    upperneck head
    lclavicle lhumerus
    lhumerus lradius
    lradius lwrist
    lwrist lhand lthumb
    lhand lfingers
    rclavicle rhumerus
    rhumerus rradius
    rradius rwrist
    rwrist rhand rthumb
    rhand rfingers
  end

#!OML:ASF H:\LiuWeirdWalks\Patient Classification 1\Patient 1\Session 1\male.ASF
:FULLY-SPECIFIED
:DEGREES
248
root -0.49977 17.9716 -30.7496 3.25257 6.55441 0.0860379
lowerback 3.53795 -0.681484 0.7312
upperback 4.47602 -0.957927 3.7364
thorax 2.67843 -0.519159 3.45504
lowerneck -35.5889 -0.0974128 5.32878
upperneck 27.018 0.288234 -9.39083
head 15.415 -0.812604 -4.87945
rclavicle -2.26615e-014 3.81667e-014
rhumerus -18.8831 -38.3773 -13.1866
rradius 29.1743
rwrist 3.66929
rhand -24.6039 -1.33425
rfingers 7.12502
rthumb 1.89416 -31.3056
lclavicle -2.26615e-014 3.81667e-014
lhumerus -13.8895 31.0129 31.8917
lradius 28.6985
lwrist 2.58495
lhand -15.7984 -2.83158
lfingers 7.12502
lthumb 10.3946 26.8915
rfemur -9.59213 -4.71879 20.2301
rtibia 30.2798
rfoot -14.1826 -28.0776
rtoes 0.246859
lfemur -6.4934 -2.50845 -14.4923
ltibia 21.4672
lfoot -8.99183 15.5626
ltoes -10.6565
249
root -0.51025 17.969 -30.7433 3.26391 6.54424 0.153239
lowerback 3.52582 -0.684197 0.706559
upperback 4.52922 -0.963915 3.72232
thorax 2.74096 -0.523299 3.45425
lowerneck -35.6949 -0.17773 5.30787
upperneck 26.9224 0.188171 -9.43086
head 15.3815 -0.865746 -4.91252
rclavicle -3.97569e-016 -6.36111e-015
rhumerus -18.6978 -38.3188 -13.1736
rradius 29.2411
rwrist 3.50504
rhand -24.6542 -1.35101
rfingers 7.12502
rthumb 1.84558 -31.3228
lclavicle -3.97569e-016 -6.36111e-015
lhumerus -13.7395 31.1196 31.6488
lradius 28.7395
lwrist 2.52386
lhand -15.6772 -3.02109
lfingers 7.12502
lthumb 10.5115 26.6961
rfemur -9.61457 -4.7711 20.1861
rtibia 30.3533
rfoot -14.2306 -28.0361
rtoes 0.222693
lfemur -6.47377 -2.4567 -14.5216
ltibia 21.4605
lfoot -9.01097 15.5069
ltoes -10.7176
250
root -0.521466 17.9664 -30.7373 3.27558 6.53244 0.218888
lowerback 3.5176 -0.681233 0.687016
upperback 4.59554 -0.962399 3.70071
thorax 2.81427 -0.523534 3.44273
lowerneck -35.8201 -0.286502 5.2683
upperneck 26.8084 0.0503547 -9.45572
head 15.3392 -0.934857 -4.94333
rclavicle -1.11319e-014 1.59028e-014
rhumerus -18.5299 -38.3705 -13.164
rradius 29.2923
rwrist 3.4092
rhand -24.7101 -1.34604
rfingers 7.12502
rthumb 1.79154 -31.3183
lclavicle -1.11319e-014 1.59028e-014
lhumerus -13.5524 31.2452 31.4181
lradius 28.7692
lwrist 2.39603
lhand -15.6135 -3.19952
lfingers 7.12502
lthumb 10.573 26.5145
rfemur -9.63982 -4.81339 20.1478
rtibia 30.4265
rfoot -14.2907 -28.0011
rtoes 0.230701
lfemur -6.45814 -2.41915 -14.5478
ltibia 21.4561
lfoot -9.0216 15.4659
ltoes -10.7803
251
root -0.533456 17.9639 -30.7318 3.28286 6.52367 0.26373
lowerback 3.52904 -0.674862 0.690266
upperback 4.65529 -0.955103 3.67784
thorax 2.86899 -0.51999 3.41722
lowerneck -35.9399 -0.426395 5.20663
upperneck 26.7078 -0.127518 -9.45576
head 15.2975 -1.01907 -4.96882
rclavicle 1.82882e-014 -5.56597e-014
rhumerus -18.3951 -38.4848 -13.1458
rradius 29.3341
rwrist 3.37474
rhand -24.7293 -1.28923
rfingers 7.12502
rthumb 1.77299 -31.2616
lclavicle 1.82882e-014 -5.56597e-014
lhumerus -13.3607 31.3411 31.1827
lradius 28.8018
lwrist 2.24904
lhand -15.5899 -3.35763
lfingers 7.12502
lthumb 10.5957 26.3553
rfemur -9.66324 -4.83999 20.1386
rtibia 30.4949
rfoot -14.3587 -27.9841
rtoes 0.261568
lfemur -6.4473 -2.40176 -14.5488
ltibia 21.459
lfoot -9.03165 15.4426
ltoes -10.8405
252
root -0.546424 17.9614 -30.7265 3.28708 6.50994 0.283927
lowerback 3.56319 -0.663784 0.713178
upperback 4.69768 -0.93998 3.65711
thorax 2.89222 -0.511658 3.38301
lowerneck -36.0275 -0.587415 5.13063
upperneck 26.6179 -0.330481 -9.44179
head 15.2521 -1.11266 -4.99078
rclavicle 3.4191e-014 0
rhumerus -18.2978 -38.5917 -13.1186
rradius 29.3795
rwrist 3.36184
rhand -24.7372 -1.23066
rfingers 7.12502
rthumb 1.76537 -31.2031
lclavicle 3.4191e-014 0
lhumerus -13.1864 31.3872 30.9333
lradius 28.8447
lwrist 2.09115
lhand -15.5867 -3.49321
lfingers 7.12502
lthumb 10.5989 26.2195
rfemur -9.68486 -4.84401 20.1636
rtibia 30.5558
rfoot -14.4278 -27.9821
rtoes 0.304061
lfemur -6.44149 -2.3897 -14.5189
ltibia 21.472
lfoot -9.03922 15.4298
ltoes -10.8666
253
root -0.560099 17.959 -30.7207 3.28498 6.49127 0.285954
lowerback 3.60531 -0.653115 0.749656
upperback 4.72122 -0.924428 3.64271
thorax 2.89128 -0.502556 3.34781
lowerneck -36.0609 -0.718224 5.1011
upperneck 26.5213 -0.498105 -9.47246
head 15.197 -1.19287 -5.03016
rclavicle 7.15625e-015 1.74931e-014
rhumerus -18.2186 -38.6632 -13.0866
rradius 29.4302
rwrist 3.35882
rhand -24.7299 -1.17763
rfingers 7.12502
rthumb 1.77241 -31.15
lclavicle 7.15625e-015 1.74931e-014
lhumerus -13.0669 31.3711 30.6583
lradius 28.9139
lwrist 1.97843
lhand -15.593 -3.58338
lfingers 7.12502
lthumb 10.5927 26.1297
rfemur -9.69712 -4.82564 20.2138
rtibia 30.6097
rfoot -14.5037 -27.997
rtoes 0.361028
lfemur -6.4314 -2.37698 -14.4663
ltibia 21.4923
lfoot -9.05083 15.4229
ltoes -10.8971
254
root -0.574248 17.9565 -30.7145 3.2831 6.47704 0.288908
lowerback 3.63537 -0.663613 0.770269
upperback 4.73366 -0.937964 3.66037
thorax 2.88815 -0.509066 3.35505
lowerneck -36.0424 -0.79693 5.0711
upperneck 26.3972 -0.56904 -9.56158
head 15.1304 -1.24159 -5.07062
rclavicle 5.96354e-015 1.43125e-014
rhumerus -18.0453 -38.6371 -13.0911
rradius 29.4869
rwrist 3.31264
rhand -24.7185 -1.14178
rfingers 7.12502
rthumb 1.78345 -31.1141
lclavicle 5.96354e-015 1.43125e-014
lhumerus -13.074 31.3608 30.3551
lradius 29.0117
lwrist 1.9102
lhand -15.5843 -3.64524
lfingers 7.12502
lthumb 10.6012 26.0674
rfemur -9.70383 -4.80962 20.2655
rtibia 30.6573
rfoot -14.5713 -28.0161
rtoes 0.401626
lfemur -6.42298 -2.34583 -14.4115
ltibia 21.5169
lfoot -9.05846 15.3965
ltoes -10.941
255
root -0.588693 17.954 -30.7075 3.27695 6.45699 0.304458
lowerback 3.66454 -0.692308 0.761097
upperback 4.75384 -0.977245 3.7137
thorax 2.89636 -0.530221 3.41649
lowerneck -36.0781 -0.811426 5.03131
upperneck 26.3089 -0.521615 -9.70891
head 15.1039 -1.25115 -5.1138
rclavicle -4.37326e-015 -7.95139e-015
rhumerus -17.7516 -38.5541 -13.1315
rradius 29.5454
rwrist 3.20766
rhand -24.7156 -1.13529
rfingers 7.12502
rthumb 1.78627 -31.1076
lclavicle -4.37326e-015 -7.95139e-015
lhumerus -13.1942 31.4069 30.0423
lradius 29.1368
lwrist 1.90534
lhand -15.5509 -3.68257
lfingers 7.12502
lthumb 10.6334 26.0284
rfemur -9.69843 -4.79255 20.3027
rtibia 30.7007
rfoot -14.6347 -28.03
rtoes 0.43753
lfemur -6.40419 -2.29643 -14.3699
ltibia 21.5428
lfoot -9.06546 15.3599
ltoes -10.9948
256
root -0.603689 17.9514 -30.7 3.2668 6.43164 0.320267
lowerback 3.69671 -0.718104 0.749266
upperback 4.77216 -1.01263 3.77086
thorax 2.90097 -0.549575 3.48348
lowerneck -36.1321 -0.757166 5.07405
upperneck 26.2063 -0.398619 -9.92656
head 15.0825 -1.23138 -5.18509
rclavicle 1.31198e-014 -1.59028e-014
rhumerus -17.4633 -38.4917 -13.163
rradius 29.6
rwrist 3.11683
rhand -24.716 -1.11369
rfingers 7.12502
rthumb 1.7859 -31.086
lclavicle 1.31198e-014 -1.59028e-014
lhumerus -13.326 31.4633 29.7286
lradius 29.2668
lwrist 1.9517
lhand -15.4856 -3.70418
lfingers 7.12502
lthumb 10.6964 26.0035
rfemur -9.68376 -4.76514 20.3413
rtibia 30.7391
rfoot -14.6938 -28.0496
rtoes 0.467102
lfemur -6.37897 -2.2432 -14.3276
ltibia 21.5705
lfoot -9.07012 15.3265
ltoes -11.0587
257
root -0.619117 17.9489 -30.6924 3.25363 6.41178 0.341992
lowerback 3.73437 -0.733521 0.74264
upperback 4.79237 -1.03359 3.80864
thorax 2.90316 -0.561163 3.52729
lowerneck -36.1974 -0.731372 5.09863
upperneck 26.1379 -0.324964 -10.0878
head 15.0735 -1.2251 -5.24189
rclavicle 9.54166e-015 -6.36111e-015
rhumerus -17.2432 -38.4624 -13.1733
rradius 29.6543
rwrist 3.03043
rhand -24.7044 -1.08245
rfingers 7.12502
rthumb 1.79702 -31.0546
lclavicle 9.54166e-015 -6.36111e-015
lhumerus -13.3923 31.5306 29.4287
lradius 29.3845
lwrist 2.04945
lhand -15.3801 -3.71747
lfingers 7.12502
lthumb 10.7981 25.985
rfemur -9.66106 -4.74076 20.3746
rtibia 30.7726
rfoot -14.7396 -28.0731
rtoes 0.478206
lfemur -6.35233 -2.20148 -14.291
ltibia 21.6031
lfoot -9.07641 15.299
ltoes -11.1229
258
root -0.63463 17.9463 -30.6843 3.24272 6.38843 0.362127
lowerback 3.76093 -0.738827 0.751572
upperback 4.81496 -1.04094 3.83074
thorax 2.91259 -0.565179 3.54572
lowerneck -36.2475 -0.722154 5.12268
upperneck 26.0728 -0.284562 -10.22
head 15.0593 -1.22794 -5.29261
rclavicle 1.11319e-014 1.27222e-014
rhumerus -17.0768 -38.4929 -13.1648
rradius 29.698
rwrist 2.99892
rhand -24.6924 -1.03181
rfingers 7.12502
rthumb 1.80868 -31.0039
lclavicle 1.11319e-014 1.27222e-014
lhumerus -13.4015 31.6202 29.1417
lradius 29.4805
lwrist 2.15928
lhand -15.2679 -3.72856
lfingers 7.12502
lthumb 10.9064 25.9682
rfemur -9.63577 -4.70987 20.4097
rtibia 30.7972
rfoot -14.7805 -28.0975
rtoes 0.486949
lfemur -6.33284 -2.17979 -14.2545
ltibia 21.6494
lfoot -9.08901 15.2954
ltoes -11.1772
259
root -0.650144 17.9438 -30.676 3.23464 6.36271 0.380885
lowerback 3.79486 -0.73223 0.781072
upperback 4.80526 -1.03013 3.82581
thorax 2.88217 -0.558496 3.52422
lowerneck -36.2012 -0.75082 5.13447
upperneck 26.0207 -0.31109 -10.2854
head 15.0245 -1.24814 -5.32371
rclavicle -2.22639e-014 2.70347e-014
rhumerus -17.0222 -38.4693 -13.1204
rradius 29.7491
rwrist 2.97243
rhand -24.6664 -0.962131
rfingers 7.12502
rthumb 1.83372 -30.934
lclavicle -2.22639e-014 2.70347e-014
lhumerus -13.384 31.626 28.8348
lradius 29.5663
lwrist 2.31448
lhand -15.1819 -3.72893
lfingers 7.12502
lthumb 10.9893 25.9634
rfemur -9.61084 -4.67423 20.4465
rtibia 30.8157
rfoot -14.8225 -28.1235
rtoes 0.491462
lfemur -6.32098 -2.18125 -14.219
ltibia 21.7086
lfoot -9.1105 15.3185
ltoes -11.2109
